<?xml version="1.0" encoding="utf-8" ?>
<svg baseProfile="tiny" height="450" version="1.2" width="300" xmlns="http://www.w3.org/2000/svg" xmlns:ev="http://www.w3.org/2001/xml-events" xmlns:xlink="http://www.w3.org/1999/xlink"><defs /><g id="level-0" transform="translate(0, 0)"><rect fill="#CCCCCC" height="40" stroke="black" width="40.0" x="20" y="0" /><rect fill="#CCCCCC" height="40" stroke="black" width="40.0" x="60.0" y="0" /><text x="25" y="25">12.0</text><text x="65" y="25">19.5</text></g><g id="level-1" transform="translate(0, 75)"><rect fill="none" height="40" stroke="black" width="40.0" x="20" y="0" /><rect fill="none" height="40" stroke="black" width="40.0" x="60.0" y="0" /><text x="25" y="25">13.0</text><text x="65" y="25">19.5</text><rect fill="#CCCCCC" height="40" stroke="black" width="40.0" x="120" y="0" /><rect fill="#CCCCCC" height="40" stroke="black" width="40.0" x="160.0" y="0" /><text x="125" y="25">12.0</text><text x="165" y="25">20.0</text></g><g id="level-2" transform="translate(0, 150)"><rect fill="none" height="40" stroke="black" width="40.0" x="20" y="0" /><rect fill="none" height="40" stroke="black" width="40.0" x="60.0" y="0" /><text x="25" y="25">15.0</text><text x="65" y="25">20.0</text><rect fill="#CCCCCC" height="40" stroke="black" width="40.0" x="120" y="0" /><rect fill="#CCCCCC" height="40" stroke="black" width="40.0" x="160.0" y="0" /><text x="125" y="25">12.0</text><text x="165" y="25">23.0</text></g><g id="level-3" transform="translate(0, 225)"><rect fill="none" height="40" stroke="black" width="40.0" x="20" y="0" /><rect fill="none" height="40" stroke="black" width="40.0" x="60.0" y="0" /><text x="25" y="25">15.0</text><text x="65" y="25">15.0</text><rect fill="none" height="40" stroke="black" width="40.0" x="120" y="0" /><rect fill="none" height="40" stroke="black" width="40.0" x="160.0" y="0" /><text x="125" y="25">19.0</text><text x="165" y="25">19.0</text><rect fill="none" height="40" stroke="black" width="40.0" x="220" y="0" /><rect fill="none" height="40" stroke="black" width="40.0" x="260.0" y="0" /><text x="225" y="25">16.0</text><text x="265" y="25">18.0</text><rect fill="#CCCCCC" height="40" stroke="black" width="40.0" x="320" y="0" /><rect fill="#CCCCCC" height="40" stroke="black" width="40.0" x="360.0" y="0" /><text x="325" y="25">12.0</text><text x="365" y="25">23.0</text></g><g id="level-4" transform="translate(0, 300)"><rect fill="#CCCCCC" height="40" stroke="black" width="40.0" x="20" y="0" /><rect fill="#CCCCCC" height="40" stroke="black" width="40.0" x="60.0" y="0" /><text x="25" y="25">12.0</text><text x="65" y="25">26.0</text><rect fill="none" height="40" stroke="black" width="40.0" x="120" y="0" /><rect fill="none" height="40" stroke="black" width="40.0" x="160.0" y="0" /><text x="125" y="25">16.0</text><text x="165" y="25">30.0</text><rect fill="none" height="40" stroke="black" width="40.0" x="220" y="0" /><rect fill="none" height="40" stroke="black" width="40.0" x="260.0" y="0" /><text x="225" y="25">13.0</text><text x="265" y="25">23.0</text></g><g id="level-5" transform="translate(0, 375)"><rect fill="none" height="40" stroke="black" width="40.0" x="20" y="0" /><rect fill="none" height="40" stroke="black" width="40.0" x="60.0" y="0" /><text x="25" y="25">18.0</text><text x="65" y="25">26.0</text><rect fill="#CCCCCC" height="40" stroke="black" width="40.0" x="120" y="0" /><rect fill="#CCCCCC" height="40" stroke="black" width="40.0" x="160.0" y="0" /><text x="125" y="25">12.0</text><text x="165" y="25">27.0</text></g></svg>