<?xml version="1.0" encoding="utf-8" ?>
<svg baseProfile="tiny" height="450" version="1.2" width="300" xmlns="http://www.w3.org/2000/svg" xmlns:ev="http://www.w3.org/2001/xml-events" xmlns:xlink="http://www.w3.org/1999/xlink"><defs /><g id="level-0" transform="translate(0, 0)"><rect fill="#CCCCCC" height="40" stroke="black" width="40.0" x="20" y="0" /><rect fill="#CCCCCC" height="40" stroke="black" width="40.0" x="60.0" y="0" /><text x="25" y="25">11.5</text><text x="65" y="25">17.0</text></g><g id="level-1" transform="translate(0, 75)"><rect fill="#CCCCCC" height="40" stroke="black" width="40.0" x="20" y="0" /><rect fill="#CCCCCC" height="40" stroke="black" width="40.0" x="60.0" y="0" /><text x="25" y="25">11.5</text><text x="65" y="25">17.0</text></g><g id="level-2" transform="translate(0, 150)"><rect fill="none" height="40" stroke="black" width="40.0" x="20" y="0" /><rect fill="none" height="40" stroke="black" width="40.0" x="60.0" y="0" /><text x="25" y="25">13.5</text><text x="65" y="25">17.0</text><rect fill="#CCCCCC" height="40" stroke="black" width="40.0" x="120" y="0" /><rect fill="#CCCCCC" height="40" stroke="black" width="40.0" x="160.0" y="0" /><text x="125" y="25">11.5</text><text x="165" y="25">19.0</text></g><g id="level-3" transform="translate(0, 225)"><rect fill="#CCCCCC" height="40" stroke="black" width="40.0" x="20" y="0" /><rect fill="#CCCCCC" height="40" stroke="black" width="40.0" x="60.0" y="0" /><text x="25" y="25">11.5</text><text x="65" y="25">19.0</text><rect fill="none" height="40" stroke="black" width="40.0" x="120" y="0" /><rect fill="none" height="40" stroke="black" width="40.0" x="160.0" y="0" /><text x="125" y="25">14.0</text><text x="165" y="25">21.5</text></g><g id="level-4" transform="translate(0, 300)"><rect fill="#CCCCCC" height="40" stroke="black" width="40.0" x="20" y="0" /><rect fill="#CCCCCC" height="40" stroke="black" width="40.0" x="60.0" y="0" /><text x="25" y="25">11.5</text><text x="65" y="25">19.0</text></g><g id="level-5" transform="translate(0, 375)"><rect fill="none" height="40" stroke="black" width="40.0" x="20" y="0" /><rect fill="none" height="40" stroke="black" width="40.0" x="60.0" y="0" /><text x="25" y="25">15.0</text><text x="65" y="25">19.0</text><rect fill="#CCCCCC" height="40" stroke="black" width="40.0" x="120" y="0" /><rect fill="#CCCCCC" height="40" stroke="black" width="40.0" x="160.0" y="0" /><text x="125" y="25">11.5</text><text x="165" y="25">19.5</text></g></svg>